<?xml version="1.0" encoding="utf-8"?>
<!-- Generator: Adobe Illustrator 19.1.1, SVG Export Plug-In . SVG Version: 6.00 Build 0)  -->
<svg version="1.1" id="Layer_1" xmlns="http://www.w3.org/2000/svg" xmlns:xlink="http://www.w3.org/1999/xlink" x="0px" y="0px"
	 viewBox="0 0 211 112" style="enable-background:new 0 0 211 112;" xml:space="preserve">
	<style type="text/css">
		path {
			fill: white;
		}
		wg {
			visibility: hidden;
		}
	</style>
	<path class="e" d="M13.1,104v-1.1h-11v-6.6h9.6v-1.1H2.2v-5.9H13v-1.1H1V104H13.1z"/>
	<path class="l" d="M26.7,104v-1.1h-10V88.2h-1.2V104H26.7z"/>
	<path class="i" d="M30,104V88h-1v16H30z"/>
	<path class="z" d="M46.3,104v-1.1h-12l11.8-13.6v-1H33.4v1.1h11.1l-11.8,13.6v1H46.3z"/>
	<path class="a" d="M63.4,104l-7.1-15.8h-1.1L47.7,104h1.3l2.3-5h8.4l2.3,5H63.4z M59.3,97.9h-7.4l3.8-8L59.3,97.9z"/>
	<path class="b" d="M76.8,103.1c1.3-0.8,2-1.9,2-3.5c0-2-1-3.3-3.1-3.9c1.7-0.7,2.6-1.8,2.6-3.3c0-1.4-0.5-2.5-1.6-3.2
		c-0.9-0.6-2.2-1-3.6-1h-7.9V104h7.6C74.4,104,75.7,103.7,76.8,103.1L76.8,103.1z M75.7,90c0.9,0.5,1.3,1.3,1.3,2.3
		c0,1-0.4,1.8-1.3,2.3c-0.7,0.4-1.7,0.7-2.8,0.7h-6.6v-5.9H73C74.1,89.3,75,89.5,75.7,90L75.7,90z M76.1,97c1,0.6,1.6,1.4,1.6,2.6
		c0,1.1-0.5,2-1.5,2.5c-0.8,0.5-1.9,0.7-3.2,0.7h-6.7v-6.6h6.6C74.2,96.3,75.3,96.6,76.1,97L76.1,97z"/>
	<path class="b" d="M103.4,88.2h-1.2l-5.9,14.1l-6.1-14.1h-1.3l2.5,5.8l-3.4,8.2l-6.1-14h-1.3l6.9,15.8h1l3.6-8.5l3.7,8.5h1
		L103.4,88.2z"/>
	<path class="w" d="M117.6,89.3v-1.1h-13.2v1.1h6V104h1.2V89.3H117.6z"/>
	<path class="t" d="M133.6,90v-1.8h-1.2l-1,7h-10.5v-7h-1.2V104h1.2v-7.7h10.5l1-2.3L133.6,90z"/>
	<path class="h_top_wing" d="M138.5,82.5c-3.2,0.9-11.2,29.8-11.1,29.5c2.4-7.9,3.1-25.1,9.8-32.8c1.4-1.5,4.9-3.2,4.9-3.2
		s22.1-6.6,30.2-23.9c0.8,2.9,0.3,5.3-0.9,8c3-3.3,41.8-31.8,13.8-60.2c9.1,4.8,17.6,12.5,16.9,21.9c1.3-1.7,1.9-4.7,1.8-7.1
		C207.6,26.6,193,67.9,138.5,82.5z"/>

	<path class="wg wseg1" d="M137.2,88.8l1.5-3.1c0,0,65.1-14.6,68.7-61.1c2.9,11-0.8,25.4-8.4,32.6c2.3-1.3,9.6-5.3,12-16
		C210.4,52.7,197.7,79,137.2,88.8z"/>
	<path class="wg wseg2" d="M135,93.7l6.7-2.7c0,0,49.1-6.5,67.6-29.4c-0.3,8.7-16.2,20.4-19.1,21.9C187.2,84.9,162,91.9,135,93.7z"/>
	<path class="wg wseg3" d="M133.6,97.7l8.9-1.8c-0.2,0.6,42.4,1.3,62.7-14.7c-2.1,3.9-6.4,7.4-12.4,9.4c3,0.3,5.8-0.8,7.1-1.8
		C191.3,97,164.3,101.1,133.6,97.7z"/>
	<path class="wg wseg4" d="M131.4,102.6l6.7-0.4c0,0,32.2,6.1,46.7-2.7c-2.3,3.7-9.6,8.5-23.6,8.5C147.2,108,131.4,102.6,131.4,102.6z"/>
</svg>
