<?xml version="1.0" encoding="utf-8"?>
<svg xmlns="http://www.w3.org/2000/svg"
	xmlns:xlink="http://www.w3.org/1999/xlink"
	width="210px" height="112px" viewBox="0 0 210 112">
<path fill="white" d="M 210 41.13C 209.45 52.75 196.69 78.98 136.18 88.8 136.18 88.8 137.69 85.68 137.69 85.68 137.69 85.68 202.82 71.07 206.41 24.55 209.31 35.51 205.62 49.96 197.96 57.12 200.24 55.78 207.6 51.85 210 41.13ZM 137.49 82.52C 134.69 83.27 128.19 105.64 126.71 110.9 127.69 107.14 128.41 101.76 129.51 96.32 129.51 96.32 119.89 96.32 119.89 96.32 119.89 96.32 119.89 103.99 119.89 103.99 119.89 103.99 118.71 103.99 118.71 103.99 118.71 103.99 118.71 88.23 118.71 88.23 118.71 88.23 119.89 88.23 119.89 88.23 119.89 88.23 119.89 95.25 119.89 95.25 119.89 95.25 129.74 95.25 129.74 95.25 130.17 93.21 130.66 91.18 131.25 89.23 131.25 89.23 131.39 88.23 131.39 88.23 131.39 88.23 131.56 88.23 131.56 88.23 132.69 84.71 134.16 81.53 136.18 79.23 137.53 77.69 141.04 76.08 141.04 76.08 141.04 76.08 163.12 69.48 171.28 52.19 172.06 55.11 171.57 57.5 170.39 60.22 173.41 56.92 212.2 28.46 184.17-0 193.22 4.82 201.77 12.53 201.07 21.86 202.33 20.12 203 17.19 202.85 14.72 206.62 26.58 192 67.93 137.49 82.52ZM 126.71 110.9C 126.61 111.28 126.51 111.65 126.4 112 126.39 112.04 126.5 111.63 126.71 110.9ZM 110.59 103.99C 110.59 103.99 109.4 103.99 109.4 103.99 109.4 103.99 109.4 89.32 109.4 89.32 109.4 89.32 103.37 89.32 103.37 89.32 103.37 89.32 103.37 88.23 103.37 88.23 103.37 88.23 116.61 88.23 116.61 88.23 116.61 88.23 116.61 89.32 116.61 89.32 116.61 89.32 110.59 89.32 110.59 89.32 110.59 89.32 110.59 103.99 110.59 103.99ZM 94.72 103.99C 94.72 103.99 91.02 95.53 91.02 95.53 91.02 95.53 87.41 103.99 87.41 103.99 87.41 103.99 86.41 103.99 86.41 103.99 86.41 103.99 79.53 88.23 79.53 88.23 79.53 88.23 80.78 88.23 80.78 88.23 80.78 88.23 86.93 102.27 86.93 102.27 86.93 102.27 90.37 94.07 90.37 94.07 90.37 94.07 87.83 88.23 87.83 88.23 87.83 88.23 89.09 88.23 89.09 88.23 89.09 88.23 95.23 102.3 95.23 102.3 95.23 102.3 101.16 88.23 101.16 88.23 101.16 88.23 102.4 88.23 102.4 88.23 102.4 88.23 95.72 103.99 95.72 103.99 95.72 103.99 94.72 103.99 94.72 103.99ZM 77.78 99.6C 77.78 101.15 77.12 102.3 75.8 103.06 74.73 103.68 73.37 103.99 71.71 103.99 71.71 103.99 64.15 103.99 64.15 103.99 64.15 103.99 64.15 88.23 64.15 88.23 64.15 88.23 72.01 88.23 72.01 88.23 73.48 88.23 74.69 88.55 75.64 89.18 76.73 89.91 77.27 90.97 77.27 92.37 77.27 93.87 76.42 94.99 74.71 95.72 76.76 96.31 77.78 97.6 77.78 99.6ZM 74.78 94.58C 75.65 94.05 76.08 93.28 76.08 92.25 76.08 91.23 75.63 90.46 74.73 89.95 74 89.53 73.08 89.32 71.96 89.32 71.96 89.32 65.33 89.32 65.33 89.32 65.33 89.32 65.33 95.25 65.33 95.25 65.33 95.25 71.94 95.25 71.94 95.25 73.09 95.25 74.04 95.03 74.78 94.58ZM 71.89 96.34C 71.89 96.34 65.33 96.34 65.33 96.34 65.33 96.34 65.33 102.9 65.33 102.9 65.33 102.9 71.99 102.9 71.99 102.9 73.27 102.9 74.33 102.65 75.15 102.16 76.13 101.58 76.62 100.74 76.62 99.62 76.62 98.43 76.1 97.55 75.06 97 74.25 96.56 73.2 96.34 71.89 96.34ZM 58.82 99.04C 58.82 99.04 50.4 99.04 50.4 99.04 50.4 99.04 48.09 103.99 48.09 103.99 48.09 103.99 46.74 103.99 46.74 103.99 46.74 103.99 54.14 88.23 54.14 88.23 54.14 88.23 55.24 88.23 55.24 88.23 55.24 88.23 62.38 103.99 62.38 103.99 62.38 103.99 61.08 103.99 61.08 103.99 61.08 103.99 58.82 99.04 58.82 99.04ZM 54.7 89.95C 54.7 89.95 50.91 97.93 50.91 97.93 50.91 97.93 58.33 97.93 58.33 97.93 58.33 97.93 54.7 89.95 54.7 89.95ZM 31.71 102.95C 31.71 102.95 43.51 89.32 43.51 89.32 43.51 89.32 32.39 89.32 32.39 89.32 32.39 89.32 32.39 88.23 32.39 88.23 32.39 88.23 45.09 88.23 45.09 88.23 45.09 88.23 45.09 89.25 45.09 89.25 45.09 89.25 33.29 102.9 33.29 102.9 33.29 102.9 45.28 102.9 45.28 102.9 45.28 102.9 45.28 103.99 45.28 103.99 45.28 103.99 31.71 103.99 31.71 103.99 31.71 103.99 31.71 102.95 31.71 102.95ZM 28 88C 28 88 29 88 29 88 29 88 29 104 29 104 29 104 28 104 28 104 28 104 28 88 28 88ZM 14.52 88.23C 14.52 88.23 15.71 88.23 15.71 88.23 15.71 88.23 15.71 102.9 15.71 102.9 15.71 102.9 25.66 102.9 25.66 102.9 25.66 102.9 25.66 103.99 25.66 103.99 25.66 103.99 14.52 103.99 14.52 103.99 14.52 103.99 14.52 88.23 14.52 88.23ZM 0 88.23C 0 88.23 12.01 88.23 12.01 88.23 12.01 88.23 12.01 89.32 12.01 89.32 12.01 89.32 1.16 89.32 1.16 89.32 1.16 89.32 1.16 95.25 1.16 95.25 1.16 95.25 10.77 95.25 10.77 95.25 10.77 95.25 10.77 96.32 10.77 96.32 10.77 96.32 1.16 96.32 1.16 96.32 1.16 96.32 1.16 102.9 1.16 102.9 1.16 102.9 12.12 102.9 12.12 102.9 12.12 102.9 12.12 103.99 12.12 103.99 12.12 103.99 0 103.99 0 103.99 0 103.99 0 88.23 0 88.23ZM 183.74 99.51C 181.39 103.25 174.17 107.99 160.18 107.99 146.17 107.99 130.4 102.63 130.4 102.63 130.4 102.63 137.07 102.19 137.07 102.19 137.07 102.19 169.27 108.26 183.74 99.51ZM 189.07 83.45C 186.18 84.86 161.01 91.92 133.96 93.71 133.96 93.71 140.62 91.03 140.62 91.03 140.62 91.03 189.68 84.5 208.19 61.58 207.88 70.25 191.97 82.03 189.07 83.45ZM 132.62 97.73C 132.62 97.73 141.51 95.94 141.51 95.94 141.32 96.54 183.91 97.23 204.19 81.22 202.11 85.15 197.83 88.58 191.74 90.59 194.7 90.92 197.55 89.74 198.85 88.8 190.29 96.96 163.29 101.12 132.62 97.73Z"/></svg>