<?xml version="1.0" encoding="utf-8"?>
<svg xmlns="http://www.w3.org/2000/svg"
	xmlns:xlink="http://www.w3.org/1999/xlink"
	width="890px" height="490px" viewBox="0 0 890 490">
<style type="text/css"><![CDATA[
.style0 {
  font-size: 85.5069px;
  font-family: "Philosopher";
  fill: rgb(255,255,255);
}
]]></style>
<g><text transform="matrix(1.19,0.00,0.00,1.18,443.06,450.61)" class="style0"><tspan x="0.00 45.49 95.34 146.56 197.69 243.18 292.60" fill="rgb(255,255,255)">ERAVERE</tspan></text><path fillRule="evenodd" d="M 391.22 395.88C 389.99 392.97 388.62 390.67 387.09 388.98 385.56 387.29 383.99 386 382.39 385.12 380.79 384.24 379.21 383.67 377.65 383.4 376.08 383.13 374.69 382.99 373.47 382.99 372.99 382.99 372.36 383.03 371.58 383.09 370.8 383.16 370.27 383.19 370 383.19 370 383.19 370 385.22 370 385.22 371.43 385.36 372.65 385.63 373.67 386.03 374.69 386.44 375.64 387.05 376.53 387.86 377.41 388.67 378.21 389.74 378.92 391.06 379.64 392.38 380.4 393.98 381.22 395.88 381.22 395.88 404.89 451.99 404.89 451.99 404.89 451.99 406.72 451.99 406.72 451.99 406.72 451.99 436 384.01 436 384.01 436 384.01 431.11 384.01 431.11 384.01 429.07 388.88 427.37 392.92 426.01 396.13 424.64 399.34 423.51 402.03 422.59 404.2 421.67 406.36 420.94 408.12 420.4 409.47 419.85 410.83 419.34 412.06 418.86 413.18 418.39 414.29 417.91 415.43 417.44 416.57 416.96 417.73 416.37 419.15 415.65 420.84 414.94 422.53 414.02 424.63 412.9 427.13 411.77 429.63 410.36 432.84 408.66 436.77 408.66 436.77 391.22 395.88 391.22 395.88Z" fill="rgb(255,255,255)"/></g><g><path fillRule="evenodd" d="M 355.92 360.62C 371.14 363.13 405.56 442.35 405 441 390.33 405.76 395.13 377.17 360.51 344.81 353.53 338.29 336.46 332.43 336.46 332.43 336.46 332.43 230.81 311.92 185.04 235.61 182.75 249.48 186.07 260.32 192.81 272.35 177.27 258.44-16.01 144.37 101.44 0 61.54 26.39 25.3 65.96 32.77 108.78 26.14 101.31 21.7 88.07 21.26 76.56 9.1 133.14 95.84 317.81 355.92 360.62Z" fill="rgb(255,255,255)"/><path fillRule="evenodd" d="M 364.85 389.09C 364.85 389.09 356.39 375.32 356.39 375.32 356.39 375.32 46.91 337.26 9.17 123.64 0.65 175.65 24.34 240.84 63.19 270.51 52 265.35 15.98 250.5-0.01 202 7.81 255.48 79.03 371.08 364.85 389.09Z" fill="rgb(255,255,255)"/><path fillRule="evenodd" d="M 377.4 410.79C 377.4 410.79 345.19 401.42 345.19 401.42 345.19 401.42 114.12 393.42 17.67 295.79 23.05 335.73 102.35 383.04 116.46 388.28 130.56 393.52 250.77 414.79 377.4 410.79Z" fill="rgb(255,255,255)"/><path fillRule="evenodd" d="M 385.42 428.76C 385.42 428.76 343.28 424.53 343.28 424.53 344.42 427.22 146.69 449.71 45.17 384.81 56.62 402.04 78.05 416.01 107.29 422.52 93.68 425.38 79.89 421.23 73.41 417.48 116.94 451.35 244.37 458.38 385.42 428.76Z" fill="rgb(255,255,255)"/><path fillRule="evenodd" d="M 397.98 450.46C 397.98 450.46 366.78 451.42 366.78 451.42 366.78 451.42 219.8 494.09 148.53 460.18 161.15 476.44 196.87 495.07 261.92 488.73 327.09 482.38 397.98 450.46 397.98 450.46Z" fill="rgb(255,255,255)"/></g></svg>