<?xml version="1.0" encoding="utf-8"?>
<svg xmlns="http://www.w3.org/2000/svg"
	xmlns:xlink="http://www.w3.org/1999/xlink"
	width="348px" height="464px" viewBox="0 0 348 464">
<g><path fillRule="evenodd" d="M 46.14 342.61C 32.86 346.16-0.39 466.26-0.01 465.01 9.94 432.41 12.8 360.71 40.7 328.95 46.32 322.55 60.95 315.86 60.95 315.86 60.95 315.86 152.85 288.48 186.81 216.68 190.05 228.82 188.04 238.74 183.11 250.01 195.68 236.3 357.17 118.16 240.49-0 278.17 20.01 313.73 52.04 310.83 90.74 316.05 83.54 318.85 71.38 318.24 61.11 333.93 110.35 273.05 282.02 46.14 342.61Z" fill="rgb(255,255,255)"/><path fillRule="evenodd" d="M 40.7 368.68C 40.7 368.68 47 355.72 47 355.72 47 355.72 318.13 295.08 333.05 101.92 345.12 147.41 329.77 207.41 297.89 237.15 307.37 231.6 338.02 215.27 347.99 170.78 345.69 218.99 292.58 327.92 40.7 368.68Z" fill="rgb(255,255,255)"/><path fillRule="evenodd" d="M 31.45 389.06C 31.45 389.06 59.2 377.95 59.2 377.95 59.2 377.95 263.41 350.82 340.45 255.68 339.15 291.65 272.94 340.58 260.89 346.45 248.83 352.33 144.08 381.65 31.45 389.06Z" fill="rgb(255,255,255)"/><path fillRule="evenodd" d="M 25.89 405.74C 25.89 405.74 62.9 398.33 62.9 398.33 62.12 400.82 239.41 403.68 323.8 337.19 315.14 353.51 297.35 367.78 271.99 376.1 284.3 377.46 296.18 372.58 301.59 368.68 265.93 402.56 153.54 419.85 25.89 405.74Z" fill="rgb(255,255,255)"/><path fillRule="evenodd" d="M 16.64 426.11C 16.64 426.11 44.4 424.26 44.4 424.26 44.4 424.26 178.43 449.46 238.68 413.15 228.91 428.69 198.85 448.35 140.61 448.35 82.27 448.35 16.64 426.11 16.64 426.11Z" fill="rgb(255,255,255)"/></g></svg>